<mxfile>
    <diagram id="lS8dstJG-Ib3cHHYEMwK" name="General Flow">
        <mxGraphModel dx="6738" dy="3696" grid="1" gridSize="10" guides="1" tooltips="1" connect="1" arrows="1" fold="1" page="1" pageScale="1" pageWidth="850" pageHeight="1100" math="0" shadow="0">
            <root>
                <mxCell id="0"/>
                <mxCell id="1" parent="0"/>
                <mxCell id="58" value="" style="rounded=1;whiteSpace=wrap;html=1;arcSize=2;" vertex="1" parent="1">
                    <mxGeometry x="910" y="90" width="590" height="800" as="geometry"/>
                </mxCell>
                <mxCell id="59" value="Signin" style="text;html=1;strokeColor=none;fillColor=none;align=center;verticalAlign=middle;whiteSpace=wrap;rounded=0;" vertex="1" parent="1">
                    <mxGeometry x="960" y="120" width="40" height="20" as="geometry"/>
                </mxCell>
                <mxCell id="56" value="" style="rounded=1;whiteSpace=wrap;html=1;arcSize=2;" vertex="1" parent="1">
                    <mxGeometry x="-10" y="100" width="800" height="800" as="geometry"/>
                </mxCell>
                <mxCell id="4" value="" style="edgeStyle=orthogonalEdgeStyle;rounded=0;orthogonalLoop=1;jettySize=auto;html=1;entryX=0;entryY=0.5;entryDx=0;entryDy=0;" edge="1" parent="1" source="2" target="5">
                    <mxGeometry relative="1" as="geometry">
                        <mxPoint x="260" y="230" as="targetPoint"/>
                    </mxGeometry>
                </mxCell>
                <mxCell id="2" value="Start" style="ellipse;whiteSpace=wrap;html=1;" vertex="1" parent="1">
                    <mxGeometry x="30" y="190" width="120" height="80" as="geometry"/>
                </mxCell>
                <mxCell id="7" value="" style="edgeStyle=orthogonalEdgeStyle;rounded=0;orthogonalLoop=1;jettySize=auto;html=1;" edge="1" parent="1" source="5" target="6">
                    <mxGeometry relative="1" as="geometry"/>
                </mxCell>
                <mxCell id="5" value="User Lands on SignUp" style="rounded=1;whiteSpace=wrap;html=1;" vertex="1" parent="1">
                    <mxGeometry x="260" y="200" width="120" height="60" as="geometry"/>
                </mxCell>
                <mxCell id="9" value="" style="edgeStyle=orthogonalEdgeStyle;rounded=0;orthogonalLoop=1;jettySize=auto;html=1;" edge="1" parent="1" source="6" target="8">
                    <mxGeometry relative="1" as="geometry"/>
                </mxCell>
                <mxCell id="6" value="User fill Details&lt;br&gt;(Phone Number, email and Name as required fields)" style="whiteSpace=wrap;html=1;rounded=1;" vertex="1" parent="1">
                    <mxGeometry x="260" y="340" width="120" height="60" as="geometry"/>
                </mxCell>
                <mxCell id="20" value="" style="edgeStyle=orthogonalEdgeStyle;rounded=0;orthogonalLoop=1;jettySize=auto;html=1;" edge="1" parent="1" source="8" target="19">
                    <mxGeometry relative="1" as="geometry"/>
                </mxCell>
                <mxCell id="8" value="Once users has entered a phone number, an OTP will be sent to the user&lt;br&gt;when the request is sent&amp;nbsp; to the Payorb backend" style="whiteSpace=wrap;html=1;rounded=1;" vertex="1" parent="1">
                    <mxGeometry x="260" y="480" width="120" height="120" as="geometry"/>
                </mxCell>
                <mxCell id="18" value="" style="edgeStyle=orthogonalEdgeStyle;rounded=0;orthogonalLoop=1;jettySize=auto;html=1;" edge="1" parent="1" source="16" target="17">
                    <mxGeometry relative="1" as="geometry"/>
                </mxCell>
                <mxCell id="16" value="Start" style="ellipse;whiteSpace=wrap;html=1;" vertex="1" parent="1">
                    <mxGeometry x="970" y="190" width="120" height="80" as="geometry"/>
                </mxCell>
                <mxCell id="34" value="" style="edgeStyle=orthogonalEdgeStyle;rounded=0;orthogonalLoop=1;jettySize=auto;html=1;" edge="1" parent="1" source="17" target="33">
                    <mxGeometry relative="1" as="geometry"/>
                </mxCell>
                <mxCell id="17" value="User Lands on Sign in Page" style="rounded=1;whiteSpace=wrap;html=1;fontFamily=Helvetica;fontSize=12;fontColor=#f0f0f0;align=center;strokeColor=#f0f0f0;fillColor=#2a2a2a;" vertex="1" parent="1">
                    <mxGeometry x="1170" y="200" width="120" height="60" as="geometry"/>
                </mxCell>
                <mxCell id="22" value="" style="edgeStyle=orthogonalEdgeStyle;rounded=0;orthogonalLoop=1;jettySize=auto;html=1;" edge="1" parent="1" source="19" target="21">
                    <mxGeometry relative="1" as="geometry"/>
                </mxCell>
                <mxCell id="19" value="User Enters OTP" style="whiteSpace=wrap;html=1;rounded=1;" vertex="1" parent="1">
                    <mxGeometry x="260" y="640" width="120" height="60" as="geometry"/>
                </mxCell>
                <mxCell id="24" value="No" style="edgeStyle=orthogonalEdgeStyle;rounded=0;orthogonalLoop=1;jettySize=auto;html=1;" edge="1" parent="1" source="21" target="23">
                    <mxGeometry relative="1" as="geometry"/>
                </mxCell>
                <mxCell id="21" value="OTP" style="rhombus;whiteSpace=wrap;html=1;rounded=1;" vertex="1" parent="1">
                    <mxGeometry x="450" y="620" width="100" height="100" as="geometry"/>
                </mxCell>
                <mxCell id="23" value="Error Message" style="whiteSpace=wrap;html=1;rounded=1;" vertex="1" parent="1">
                    <mxGeometry x="440" y="820" width="120" height="60" as="geometry"/>
                </mxCell>
                <mxCell id="28" value="" style="edgeStyle=orthogonalEdgeStyle;rounded=0;orthogonalLoop=1;jettySize=auto;html=1;" edge="1" parent="1" source="21" target="29">
                    <mxGeometry relative="1" as="geometry">
                        <mxPoint x="550" y="670" as="sourcePoint"/>
                        <mxPoint x="620" y="670" as="targetPoint"/>
                    </mxGeometry>
                </mxCell>
                <mxCell id="29" value="Log Into Dashboard" style="rounded=1;whiteSpace=wrap;html=1;" vertex="1" parent="1">
                    <mxGeometry x="620" y="640" width="120" height="60" as="geometry"/>
                </mxCell>
                <mxCell id="40" value="" style="edgeStyle=orthogonalEdgeStyle;rounded=0;orthogonalLoop=1;jettySize=auto;html=1;" edge="1" parent="1" source="33" target="39">
                    <mxGeometry relative="1" as="geometry"/>
                </mxCell>
                <mxCell id="33" value="Enters Phone Number" style="whiteSpace=wrap;html=1;rounded=1;" vertex="1" parent="1">
                    <mxGeometry x="1170" y="340" width="120" height="60" as="geometry"/>
                </mxCell>
                <mxCell id="53" style="edgeStyle=orthogonalEdgeStyle;rounded=0;orthogonalLoop=1;jettySize=auto;html=1;" edge="1" parent="1" source="39" target="49">
                    <mxGeometry relative="1" as="geometry"/>
                </mxCell>
                <mxCell id="39" value="Recieves OTP" style="whiteSpace=wrap;html=1;rounded=1;" vertex="1" parent="1">
                    <mxGeometry x="1170" y="480" width="120" height="60" as="geometry"/>
                </mxCell>
                <mxCell id="49" value="OTP" style="rhombus;whiteSpace=wrap;html=1;rounded=1;" vertex="1" parent="1">
                    <mxGeometry x="1180" y="580" width="100" height="100" as="geometry"/>
                </mxCell>
                <mxCell id="50" value="" style="edgeStyle=orthogonalEdgeStyle;rounded=0;orthogonalLoop=1;jettySize=auto;html=1;" edge="1" parent="1" source="49" target="51">
                    <mxGeometry relative="1" as="geometry">
                        <mxPoint x="1230" y="630" as="sourcePoint"/>
                        <mxPoint x="1300" y="630" as="targetPoint"/>
                    </mxGeometry>
                </mxCell>
                <mxCell id="51" value="Log Into Dashboard" style="rounded=1;whiteSpace=wrap;html=1;" vertex="1" parent="1">
                    <mxGeometry x="1340" y="600" width="120" height="60" as="geometry"/>
                </mxCell>
                <mxCell id="54" value="Error Message" style="whiteSpace=wrap;html=1;rounded=1;" vertex="1" parent="1">
                    <mxGeometry x="1170" y="770" width="120" height="60" as="geometry"/>
                </mxCell>
                <mxCell id="55" value="No" style="edgeStyle=orthogonalEdgeStyle;rounded=0;orthogonalLoop=1;jettySize=auto;html=1;" edge="1" parent="1" source="49" target="54">
                    <mxGeometry relative="1" as="geometry">
                        <mxPoint x="1180" y="780" as="targetPoint"/>
                        <mxPoint x="1180" y="680" as="sourcePoint"/>
                    </mxGeometry>
                </mxCell>
                <mxCell id="57" value="Signup" style="text;html=1;strokeColor=none;fillColor=none;align=center;verticalAlign=middle;whiteSpace=wrap;rounded=0;" vertex="1" parent="1">
                    <mxGeometry x="40" y="130" width="40" height="20" as="geometry"/>
                </mxCell>
            </root>
        </mxGraphModel>
    </diagram>
    <diagram name="Architecture" id="hlknJMwipm7-ZGEaWdY1">
        <mxGraphModel dx="2082" dy="2024" grid="1" gridSize="10" guides="1" tooltips="1" connect="1" arrows="1" fold="1" page="1" pageScale="1" pageWidth="850" pageHeight="1100" math="0" shadow="0">
            <root>
                <mxCell id="9d0kuDjCbn3Q_kJpMVam-0"/>
                <mxCell id="9d0kuDjCbn3Q_kJpMVam-1" parent="9d0kuDjCbn3Q_kJpMVam-0"/>
                <mxCell id="xzOS5XeIxy4zTITvCsUY-22" value="" style="rounded=1;whiteSpace=wrap;html=1;arcSize=3;" vertex="1" parent="9d0kuDjCbn3Q_kJpMVam-1">
                    <mxGeometry x="-310" y="-150" width="1020" height="730" as="geometry"/>
                </mxCell>
                <mxCell id="xzOS5XeIxy4zTITvCsUY-24" value="" style="rounded=1;whiteSpace=wrap;html=1;dashed=1;" vertex="1" parent="9d0kuDjCbn3Q_kJpMVam-1">
                    <mxGeometry x="210" y="240" width="480" height="180" as="geometry"/>
                </mxCell>
                <mxCell id="xzOS5XeIxy4zTITvCsUY-2" style="edgeStyle=orthogonalEdgeStyle;rounded=0;orthogonalLoop=1;jettySize=auto;html=1;" edge="1" parent="9d0kuDjCbn3Q_kJpMVam-1" source="xzOS5XeIxy4zTITvCsUY-1" target="xzOS5XeIxy4zTITvCsUY-3">
                    <mxGeometry relative="1" as="geometry">
                        <mxPoint x="290" y="295" as="targetPoint"/>
                    </mxGeometry>
                </mxCell>
                <mxCell id="xzOS5XeIxy4zTITvCsUY-16" value="&amp;nbsp; &amp;nbsp;1. User Data send to backend&amp;nbsp; &amp;nbsp;" style="edgeLabel;html=1;align=center;verticalAlign=middle;resizable=0;points=[];" vertex="1" connectable="0" parent="xzOS5XeIxy4zTITvCsUY-2">
                    <mxGeometry x="-0.1064" y="-3" relative="1" as="geometry">
                        <mxPoint as="offset"/>
                    </mxGeometry>
                </mxCell>
                <mxCell id="xzOS5XeIxy4zTITvCsUY-11" style="edgeStyle=orthogonalEdgeStyle;rounded=0;orthogonalLoop=1;jettySize=auto;html=1;entryX=0;entryY=0.25;entryDx=0;entryDy=0;" edge="1" parent="9d0kuDjCbn3Q_kJpMVam-1" source="xzOS5XeIxy4zTITvCsUY-1" target="xzOS5XeIxy4zTITvCsUY-5">
                    <mxGeometry relative="1" as="geometry">
                        <Array as="points">
                            <mxPoint x="-110" y="125"/>
                        </Array>
                    </mxGeometry>
                </mxCell>
                <mxCell id="xzOS5XeIxy4zTITvCsUY-20" value="5. User Enters OTP and request is send to firebase for confirmation" style="edgeLabel;html=1;align=center;verticalAlign=middle;resizable=0;points=[];" vertex="1" connectable="0" parent="xzOS5XeIxy4zTITvCsUY-11">
                    <mxGeometry x="0.0844" y="3" relative="1" as="geometry">
                        <mxPoint as="offset"/>
                    </mxGeometry>
                </mxCell>
                <mxCell id="xzOS5XeIxy4zTITvCsUY-13" value="7. Users Redirected to dashboard" style="edgeStyle=orthogonalEdgeStyle;rounded=0;orthogonalLoop=1;jettySize=auto;html=1;" edge="1" parent="9d0kuDjCbn3Q_kJpMVam-1" source="xzOS5XeIxy4zTITvCsUY-1" target="xzOS5XeIxy4zTITvCsUY-14">
                    <mxGeometry relative="1" as="geometry">
                        <mxPoint x="55" y="420" as="targetPoint"/>
                    </mxGeometry>
                </mxCell>
                <mxCell id="xzOS5XeIxy4zTITvCsUY-1" value="FRONTEND" style="ellipse;whiteSpace=wrap;html=1;aspect=fixed;" vertex="1" parent="9d0kuDjCbn3Q_kJpMVam-1">
                    <mxGeometry x="-190" y="257.5" width="90" height="90" as="geometry"/>
                </mxCell>
                <mxCell id="xzOS5XeIxy4zTITvCsUY-7" style="edgeStyle=orthogonalEdgeStyle;rounded=0;orthogonalLoop=1;jettySize=auto;html=1;entryX=0;entryY=0.75;entryDx=0;entryDy=0;" edge="1" parent="9d0kuDjCbn3Q_kJpMVam-1" source="xzOS5XeIxy4zTITvCsUY-3" target="xzOS5XeIxy4zTITvCsUY-5">
                    <mxGeometry relative="1" as="geometry">
                        <Array as="points">
                            <mxPoint x="320" y="155"/>
                        </Array>
                    </mxGeometry>
                </mxCell>
                <mxCell id="xzOS5XeIxy4zTITvCsUY-19" value="3. Send a request to firebase to create user and send OTP to user" style="edgeLabel;html=1;align=center;verticalAlign=middle;resizable=0;points=[];" vertex="1" connectable="0" parent="xzOS5XeIxy4zTITvCsUY-7">
                    <mxGeometry x="-0.7586" y="2" relative="1" as="geometry">
                        <mxPoint x="2" y="-27" as="offset"/>
                    </mxGeometry>
                </mxCell>
                <mxCell id="xzOS5XeIxy4zTITvCsUY-17" value="&amp;nbsp;2. Store user name&amp;nbsp;&amp;nbsp;&lt;br&gt;on DB" style="edgeStyle=orthogonalEdgeStyle;rounded=0;orthogonalLoop=1;jettySize=auto;html=1;" edge="1" parent="9d0kuDjCbn3Q_kJpMVam-1" source="xzOS5XeIxy4zTITvCsUY-3" target="xzOS5XeIxy4zTITvCsUY-18">
                    <mxGeometry relative="1" as="geometry">
                        <mxPoint x="520" y="302.5" as="targetPoint"/>
                    </mxGeometry>
                </mxCell>
                <mxCell id="xzOS5XeIxy4zTITvCsUY-3" value="Serverless API&lt;br&gt;[AWS serverless or GCP cloud functions]" style="rounded=1;whiteSpace=wrap;html=1;fontFamily=Helvetica;fontSize=12;fontColor=#f0f0f0;align=center;strokeColor=#f0f0f0;fillColor=#2a2a2a;" vertex="1" parent="9d0kuDjCbn3Q_kJpMVam-1">
                    <mxGeometry x="240" y="265" width="180" height="75" as="geometry"/>
                </mxCell>
                <mxCell id="xzOS5XeIxy4zTITvCsUY-12" style="edgeStyle=orthogonalEdgeStyle;rounded=0;orthogonalLoop=1;jettySize=auto;html=1;entryX=0.5;entryY=0;entryDx=0;entryDy=0;exitX=0.25;exitY=0;exitDx=0;exitDy=0;" edge="1" parent="9d0kuDjCbn3Q_kJpMVam-1" source="xzOS5XeIxy4zTITvCsUY-5" target="xzOS5XeIxy4zTITvCsUY-1">
                    <mxGeometry relative="1" as="geometry">
                        <Array as="points">
                            <mxPoint x="465" y="90"/>
                            <mxPoint x="-145" y="90"/>
                        </Array>
                    </mxGeometry>
                </mxCell>
                <mxCell id="xzOS5XeIxy4zTITvCsUY-21" value="6. If OTP confirmed, Access tokens are received" style="edgeLabel;html=1;align=center;verticalAlign=middle;resizable=0;points=[];" vertex="1" connectable="0" parent="xzOS5XeIxy4zTITvCsUY-12">
                    <mxGeometry x="-0.5082" y="1" relative="1" as="geometry">
                        <mxPoint x="-109" as="offset"/>
                    </mxGeometry>
                </mxCell>
                <mxCell id="xzOS5XeIxy4zTITvCsUY-5" value="" style="strokeColor=#dddddd;shadow=1;strokeWidth=1;rounded=1;absoluteArcSize=1;arcSize=2;" vertex="1" parent="9d0kuDjCbn3Q_kJpMVam-1">
                    <mxGeometry x="440" y="110" width="100" height="60" as="geometry"/>
                </mxCell>
                <mxCell id="xzOS5XeIxy4zTITvCsUY-6" value="Firebase" style="dashed=0;connectable=0;html=1;fillColor=#5184F3;strokeColor=none;shape=mxgraph.gcp2.firebase;part=1;labelPosition=right;verticalLabelPosition=middle;align=left;verticalAlign=middle;spacingLeft=5;fontColor=#999999;fontSize=12;" vertex="1" parent="xzOS5XeIxy4zTITvCsUY-5">
                    <mxGeometry width="32.4" height="45" relative="1" as="geometry">
                        <mxPoint x="5" y="7" as="offset"/>
                    </mxGeometry>
                </mxCell>
                <mxCell id="xzOS5XeIxy4zTITvCsUY-9" value="" style="verticalLabelPosition=bottom;verticalAlign=top;html=1;shadow=0;dashed=0;strokeWidth=1;shape=mxgraph.android.phone2;strokeColor=#c0c0c0;" vertex="1" parent="9d0kuDjCbn3Q_kJpMVam-1">
                    <mxGeometry x="460" y="-90" width="60" height="90" as="geometry"/>
                </mxCell>
                <mxCell id="xzOS5XeIxy4zTITvCsUY-10" value="4. SEND OTP" style="edgeStyle=orthogonalEdgeStyle;rounded=0;orthogonalLoop=1;jettySize=auto;html=1;" edge="1" parent="9d0kuDjCbn3Q_kJpMVam-1" source="xzOS5XeIxy4zTITvCsUY-5" target="xzOS5XeIxy4zTITvCsUY-9">
                    <mxGeometry relative="1" as="geometry">
                        <mxPoint x="490" y="40" as="targetPoint"/>
                        <mxPoint x="490" y="110" as="sourcePoint"/>
                    </mxGeometry>
                </mxCell>
                <mxCell id="xzOS5XeIxy4zTITvCsUY-14" value="Login to Dashboard" style="rounded=1;whiteSpace=wrap;html=1;" vertex="1" parent="9d0kuDjCbn3Q_kJpMVam-1">
                    <mxGeometry x="-205" y="440" width="120" height="60" as="geometry"/>
                </mxCell>
                <mxCell id="xzOS5XeIxy4zTITvCsUY-18" value="Datastore" style="aspect=fixed;perimeter=ellipsePerimeter;html=1;align=center;shadow=0;dashed=0;spacingTop=3;image;image=img/lib/active_directory/database.svg;" vertex="1" parent="9d0kuDjCbn3Q_kJpMVam-1">
                    <mxGeometry x="610" y="278.45" width="65" height="48.1" as="geometry"/>
                </mxCell>
                <mxCell id="xzOS5XeIxy4zTITvCsUY-23" value="&lt;b&gt;&lt;font style=&quot;font-size: 20px&quot;&gt;SIGN UP&lt;/font&gt;&lt;/b&gt;" style="text;html=1;strokeColor=none;fillColor=none;align=center;verticalAlign=middle;whiteSpace=wrap;rounded=0;" vertex="1" parent="9d0kuDjCbn3Q_kJpMVam-1">
                    <mxGeometry x="-260" y="-110" width="90" height="20" as="geometry"/>
                </mxCell>
                <mxCell id="xzOS5XeIxy4zTITvCsUY-25" value="&lt;b&gt;&lt;font style=&quot;font-size: 20px&quot;&gt;Payorb Backend&lt;/font&gt;&lt;/b&gt;" style="text;html=1;strokeColor=none;fillColor=none;align=center;verticalAlign=middle;whiteSpace=wrap;rounded=0;" vertex="1" parent="9d0kuDjCbn3Q_kJpMVam-1">
                    <mxGeometry x="405" y="370" width="90" height="20" as="geometry"/>
                </mxCell>
            </root>
        </mxGraphModel>
    </diagram>
</mxfile>